#!OML:ASF F:\VICON\USERDATA\INSTALL\Justin_Nancy\Justin_Nancy.ASF
:FULLY-SPECIFIED
:DEGREES
109
root 0.333676 17.6026 -9.83203 -1.11658 0.247049 -2.91965
lowerback 6.07073 -0.579634 1.78531
upperback 0.802123 -0.571292 2.98014
thorax -2.56472 -0.289845 2.11673
lowerneck -16.119 -3.15523 -9.32722
upperneck 22.2126 -3.07246 4.68981
head 9.9523 -1.67643 2.7991
rclavicle 2.36802e-014 1.35174e-014
rhumerus -31.4526 -10.3814 -78.2146
rradius 29.2337
rwrist 6.97327
rhand -12.7128 11.4515
rfingers 7.12502
rthumb 13.3701 -18.0995
lclavicle 2.36802e-014 1.35174e-014
lhumerus -30.0161 11.2575 84.5125
lradius 25.1861
lwrist -13.0874
lhand -12.2773 39.6241
lfingers 7.12502
lthumb 13.7897 69.1471
rfemur -3.68646 6.90531 28.889
rtibia 20.7155
rfoot -11.0767 -5.69305
rtoes 5.18668
lfemur -28.6139 4.35997 -16.9325
ltibia 66.4968
lfoot -4.51374 -2.42432
ltoes -3.86987
110
root 0.346573 17.5893 -9.66678 -1.15661 -0.654316 -3.21406
lowerback 6.18603 -0.290735 2.28134
upperback 0.744668 -0.145125 3.03571
thorax -2.6997 -0.082681 1.86208
lowerneck -15.9341 -3.14466 -9.52931
upperneck 22.2555 -3.02449 4.6971
head 9.93356 -1.6734 2.84351
rclavicle 2.26118e-015 -3.97569e-015
rhumerus -31.3935 -9.66229 -78.3376
rradius 29.6539
rwrist 6.2476
rhand -11.9451 10.3153
rfingers 7.12502
rthumb 14.1099 -19.1856
lclavicle 2.26118e-015 -3.97569e-015
lhumerus -30.6528 11.8223 84.2658
lradius 25.0514
lwrist -13.0908
lhand -16.0334 31.2828
lfingers 7.12502
lthumb 10.1679 61.0171
rfemur -3.01621 6.95602 29.1989
rtibia 20.6925
rfoot -11.6051 -5.05115
rtoes 4.57244
lfemur -29.0229 4.95544 -16.7149
ltibia 65.2412
lfoot -5.07154 -1.67905
ltoes -3.05125
111
root 0.341751 17.5682 -9.53499 -1.01953 -0.752857 -3.28339
lowerback 6.47437 -0.222218 2.38477
upperback 0.622786 -0.0291368 3.02856
thorax -2.98898 -0.0274347 1.78974
lowerneck -16.046 -3.12352 -9.55036
upperneck 22.3033 -2.97633 4.69041
head 9.96824 -1.65306 2.8513
rclavicle 1.93815e-015 -1.98785e-014
rhumerus -31.1015 -9.28397 -78.4711
rradius 29.8475
rwrist 6.38091
rhand -12.6922 10.5648
rfingers 7.12502
rthumb 13.3899 -18.985
lclavicle 1.93815e-015 -1.98785e-014
lhumerus -31.0872 12.4026 83.9279
lradius 24.9218
lwrist -13.2788
lhand -19.155 25.0246
lfingers 7.12502
lthumb 7.15555 54.8837
rfemur -2.63062 6.9069 29.3345
rtibia 20.6441
rfoot -12.0633 -5.03826
rtoes 4.28789
lfemur -29.8443 4.95165 -16.7076
ltibia 63.8331
lfoot -5.79374 -1.03789
ltoes -3.61852
112
root 0.348341 17.5532 -9.38837 -0.936956 -0.891407 -3.33031
lowerback 6.4501 -0.141886 2.65012
upperback 0.706416 0.0892962 2.93538
thorax -2.88996 0.0284843 1.53305
lowerneck -16.1989 -3.09823 -9.48574
upperneck 22.0902 -2.95769 4.77196
head 9.91877 -1.62419 2.86837
rclavicle 7.92654e-015 3.97569e-015
rhumerus -30.4255 -9.19631 -78.5871
rradius 29.7566
rwrist 7.28666
rhand -13.9268 11.547
rfingers 7.12502
rthumb 12.1997 -18.0773
lclavicle 7.92654e-015 3.97569e-015
lhumerus -31.3025 13.0942 83.565
lradius 25.0056
lwrist -13.6774
lhand -19.9492 23.7023
lfingers 7.12502
lthumb 6.38888 53.5859
rfemur -2.06283 6.81614 29.3933
rtibia 20.5145
rfoot -12.603 -4.95315
rtoes 4.0865
lfemur -30.3901 4.90424 -16.7503
ltibia 62.2346
lfoot -6.86649 -0.321385
ltoes -4.86483
113
root 0.350476 17.5402 -9.2384 -0.796021 -1.06082 -3.38227
lowerback 6.41706 -0.0411728 2.82184
upperback 0.645818 0.234925 2.88695
thorax -2.93428 0.0981787 1.37392
lowerneck -16.1639 -3.09952 -9.46105
upperneck 22.0745 -2.97597 4.79904
head 9.90779 -1.62753 2.87139
rclavicle -2.36057e-015 1.03368e-014
rhumerus -30.0235 -9.09372 -78.6261
rradius 29.7469
rwrist 7.71672
rhand -14.4789 11.682
rfingers 7.12502
rthumb 11.6673 -17.9732
lclavicle -2.36057e-015 1.03368e-014
lhumerus -31.6945 13.5293 83.3325
lradius 24.9903
lwrist -13.2912
lhand -18.9634 26.1107
lfingers 7.12502
lthumb 7.34051 55.9633
rfemur -1.58343 6.73784 29.458
rtibia 20.4301
rfoot -13.1031 -4.87202
rtoes 3.6308
lfemur -30.9113 4.78359 -16.7589
ltibia 60.458
lfoot -7.80596 0.34823
ltoes -5.29973
114
root 0.350726 17.5241 -9.09409 -0.616836 -1.28026 -3.65319
lowerback 6.47876 0.0696362 3.18989
upperback 0.553102 0.415439 2.8749
thorax -3.06279 0.181821 1.13954
lowerneck -16.1755 -3.07034 -9.1909
upperneck 22.0538 -2.95879 4.60807
head 9.89338 -1.61803 2.76038
rclavicle 1.05107e-014 -1.66979e-014
rhumerus -29.8875 -8.80562 -78.8024
rradius 30.1994
rwrist 7.43793
rhand -14.1515 11.0332
rfingers 7.12502
rthumb 11.983 -18.6038
lclavicle 1.05107e-014 -1.66979e-014
lhumerus -32.0004 13.555 83.2134
lradius 24.8058
lwrist -12.1022
lhand -17.5782 29.7034
lfingers 7.12502
lthumb 8.67744 59.5051
rfemur -1.13824 6.90022 29.7876
rtibia 20.2758
rfoot -13.5061 -4.93037
rtoes 3.13182
lfemur -31.4858 4.65259 -16.4887
ltibia 58.5316
lfoot -8.21609 0.965453
ltoes -7.18367
